<svg xmlns="http://www.w3.org/2000/svg" xmlns:xlink="http://www.w3.org/1999/xlink" id="Layer_1" x="0px" y="0px" viewBox="0 0 75 66.8" style="enable-background:new 0 0 75 66.8;" xml:space="preserve"><style type="text/css">	.st0{fill:url(#SVGID_1_);}</style><linearGradient id="SVGID_1_" gradientUnits="userSpaceOnUse" x1="0" y1="33.3984" x2="75" y2="33.3984">	<stop offset="0" style="stop-color:#4D148C"></stop>	<stop offset="0.33" style="stop-color:#7D22C3"></stop>	<stop offset="1" style="stop-color:#FF6200"></stop></linearGradient><path class="st0" d="M71.2,66.8c-0.2,0-0.4-0.1-0.6-0.2l-14-12.8c-2,1.3-4.4,1.9-6.8,1.9c-3.4,0-6.7-1.3-9.1-3.8l0,0l0,0 c-2.4-2.4-3.8-5.7-3.8-9.1c0-3.4,1.3-6.7,3.8-9.1c5-5,13.2-5,18.2,0c2.4,2.4,3.8,5.7,3.8,9.1c0,2.4-0.7,4.8-1.9,6.8l13.9,12.8 c0.2,0.2,0.3,0.4,0.3,0.6c0,0.2-0.1,0.5-0.3,0.6l-2.9,2.9C71.6,66.7,71.4,66.8,71.2,66.8z M63.3,57.5l7.9,7.2l1.7-1.7L65,55.8 L63.3,57.5z M58.1,52.7l3.9,3.6l1.7-1.7L59.7,51c-0.3,0.3-0.5,0.6-0.8,0.9C58.6,52.2,58.4,52.4,58.1,52.7z M49.8,31.6 c-2.9,0-5.7,1.1-7.9,3.3c-2.1,2.1-3.3,4.9-3.3,7.9s1.2,5.8,3.3,7.9l0,0c4.3,4.3,11.4,4.3,15.7,0c2.1-2.1,3.3-4.9,3.3-7.9 s-1.2-5.8-3.3-7.9C55.5,32.7,52.7,31.6,49.8,31.6z M30.8,59.2C30.8,59.2,30.8,59.2,30.8,59.2C30.8,59.2,30.8,59.2,30.8,59.2 L30.8,59.2c-0.2,0-0.3,0-0.4-0.1L0.5,44.4C0.2,44.3,0,44,0,43.7V15c0-0.1,0-0.3,0.1-0.4c0,0,0,0,0,0c0.1-0.2,0.2-0.3,0.4-0.4 L30.4,0.1c0.2-0.1,0.5-0.1,0.8,0l28.7,14.1c0.2,0.1,0.3,0.2,0.4,0.4c0,0,0,0,0,0c0,0,0,0,0,0c0,0,0,0,0,0c0,0,0,0,0,0c0,0,0,0,0,0 c0.1,0.1,0.1,0.3,0.1,0.4v17c0,0.5-0.4,0.9-0.9,0.9c-0.5,0-0.9-0.4-0.9-0.9V16.4L34.9,28.5c-0.1,0.1-0.3,0.2-0.4,0.2l-2.8,1.4v26.8 l8.1-4.1c0.4-0.2,1,0,1.2,0.4c0.2,0.4,0,1-0.4,1.2l-9.4,4.7C31.1,59.1,30.9,59.2,30.8,59.2C30.8,59.2,30.8,59.2,30.8,59.2 C30.8,59.2,30.8,59.2,30.8,59.2L30.8,59.2C30.8,59.2,30.8,59.2,30.8,59.2z M1.8,43.1l28.1,13.8V30.1L1.8,16.4V43.1z M2.9,15 l27.8,13.6l1.5-0.8L21,22.2c0,0,0,0,0,0L4.8,14.1L2.9,15z M23.3,21.4l10.9,5.5l18.6-9.5l-11.3-5.6L23.3,21.4z M18.9,19.2l2.4,1.2 l18.3-9.7l-2.2-1.1L18.9,19.2z M6.8,13.1L17,18.2l18.6-9.6L26.3,4c0,0,0,0,0,0L6.8,13.1z M28.2,3l26.6,13.3l2.7-1.4L30.8,1.9L28.2,3 z M56,49.8c-0.2,0-0.4-0.1-0.6-0.3c-0.3-0.3-0.3-0.9,0-1.2c3.2-3.2,3.2-7.9,0-11.1c-0.3-0.3-0.3-0.9,0-1.2c0.3-0.3,0.9-0.3,1.2,0 c3.9,3.9,3.9,9.7,0,13.5C56.4,49.7,56.2,49.8,56,49.8z"></path></svg>