<svg xmlns="http://www.w3.org/2000/svg" xmlns:xlink="http://www.w3.org/1999/xlink" id="Layer_1" x="0px" y="0px" viewBox="0 0 75 75" style="enable-background:new 0 0 75 75;" xml:space="preserve"><style type="text/css">	.st0{fill:url(#SVGID_1_);}</style><linearGradient id="SVGID_1_" gradientUnits="userSpaceOnUse" x1="0.293" y1="37.5" x2="74.707" y2="37.5">	<stop offset="0" style="stop-color:#4D148C"></stop>	<stop offset="0.33" style="stop-color:#7D22C3"></stop>	<stop offset="1" style="stop-color:#FF6200"></stop></linearGradient><path class="st0" d="M29.7,62.5c-0.5-2.6-2.8-4.5-5.5-4.5h-2.6c2.7-1.8,4.5-4.9,4.5-8.2c0-5.3-4.7-10-10-10c-5.3,0-10,4.7-10,10 c0,3.3,1.8,6.4,4.5,8.2H8c-2.7,0-5,1.9-5.5,4.5L0.3,74c-0.1,0.5,0.2,0.9,0.7,1c0.5,0.1,0.9-0.2,1-0.7l2.2-11.4 c0.3-1.8,1.9-3.1,3.7-3.1h16.3c1.8,0,3.4,1.3,3.7,3.1l2.2,11.4c0.1,0.4,0.4,0.7,0.9,0.7c0.1,0,0.1,0,0.2,0c0.5-0.1,0.8-0.6,0.7-1 L29.7,62.5z M7.9,49.8c0-4.3,3.9-8.2,8.2-8.2c4.3,0,8.2,3.9,8.2,8.2S20.4,58,16.1,58C11.8,58,7.9,54.1,7.9,49.8z M74.7,74l-2.2-11.4 C72,59.9,69.7,58,67,58h-2.6c2.7-1.8,4.5-4.9,4.5-8.2c0-5.3-4.7-10-10-10c-5.3,0-10,4.7-10,10c0,3.3,1.8,6.4,4.5,8.2h-2.6 c-2.7,0-5,1.9-5.5,4.5L43.1,74c-0.1,0.5,0.2,0.9,0.7,1c0.5,0.1,0.9-0.2,1-0.7L47,62.9c0.3-1.8,1.9-3.1,3.7-3.1H67 c1.8,0,3.4,1.3,3.7,3.1L73,74.3c0.1,0.4,0.4,0.7,0.9,0.7c0.1,0,0.1,0,0.2,0C74.5,74.9,74.8,74.4,74.7,74z M50.7,49.8 c0-4.3,3.9-8.2,8.2-8.2c4.3,0,8.2,3.9,8.2,8.2S63.2,58,58.9,58C54.6,58,50.7,54.1,50.7,49.8z M15.2,29.9h5.6v5 c0,0.3,0.2,0.6,0.5,0.8c0.1,0.1,0.3,0.1,0.4,0.1c0.2,0,0.4-0.1,0.5-0.2l8-5.7h15.5c0.5,0,0.9-0.4,0.9-0.9v-4.7l6.2,4.8 c0.2,0.1,0.3,0.2,0.5,0.2c0.1,0,0.3,0,0.4-0.1c0.3-0.1,0.5-0.5,0.5-0.8v-5h5c0.5,0,0.9-0.4,0.9-0.9V0.9c0-0.5-0.4-0.9-0.9-0.9H28.7 c-0.5,0-0.9,0.4-0.9,0.9v6.7H15.2c-0.5,0-0.9,0.4-0.9,0.9V29C14.4,29.5,14.7,29.9,15.2,29.9z M29.6,1.8h28.7v19.9h-5 c-0.5,0-0.9,0.4-0.9,0.9v4.1l-5.9-4.5V8.5c0-0.5-0.4-0.9-0.9-0.9H29.6V1.8z M16.1,9.4h28.7v18.8H29.9c-0.2,0-0.4,0.1-0.5,0.2 l-6.8,4.9V29c0-0.5-0.4-0.9-0.9-0.9h-5.6V9.4z M25.5,18.8C25.5,18.8,25.5,18.8,25.5,18.8C25.5,18.8,25.5,18.8,25.5,18.8L25.5,18.8z  M22,18.8c0-1,0.8-1.8,1.8-1.8c1,0,1.8,0.8,1.8,1.8c0,1-0.8,1.8-1.8,1.8C22.8,20.5,22,19.7,22,18.8z M29,18.8c0-1,0.8-1.8,1.8-1.8 c1,0,1.8,0.8,1.8,1.8c0,1-0.8,1.8-1.8,1.8C29.8,20.5,29,19.7,29,18.8z M32.5,18.8C32.5,18.8,32.5,18.8,32.5,18.8 C32.5,18.8,32.5,18.8,32.5,18.8L32.5,18.8z M39.6,18.8C39.6,18.8,39.6,18.8,39.6,18.8C39.6,18.8,39.6,18.8,39.6,18.8L39.6,18.8z  M36,18.8c0-1,0.8-1.8,1.8-1.8c1,0,1.8,0.8,1.8,1.8c0,1-0.8,1.8-1.8,1.8C36.8,20.5,36,19.7,36,18.8z"></path></svg>