<svg xmlns="http://www.w3.org/2000/svg" xmlns:xlink="http://www.w3.org/1999/xlink" id="Layer_1" x="0px" y="0px" viewBox="0 0 75 75" style="enable-background:new 0 0 75 75;" xml:space="preserve"><style type="text/css">	.st0{fill:url(#SVGID_1_);}</style><linearGradient id="SVGID_1_" gradientUnits="userSpaceOnUse" x1="3.607659e-04" y1="37.5" x2="74.9996" y2="37.5">	<stop offset="0" style="stop-color:#4D148C"></stop>	<stop offset="0.33" style="stop-color:#7D22C3"></stop>	<stop offset="1" style="stop-color:#FF6200"></stop></linearGradient><path class="st0" d="M70.6,75c-0.2,0-0.4-0.1-0.6-0.2L53.7,59c-1,0.6-2.1,1.1-3.3,1.4v8.4c0,0.5-0.4,0.9-0.9,0.9H0.9 c-0.5,0-0.9-0.4-0.9-0.9V15.5c0,0,0,0,0,0c0,0,0,0,0,0c0,0,0,0,0,0c0,0,0,0,0,0c0,0,0,0,0,0c0-0.1,0-0.2,0.1-0.3 c0-0.1,0.1-0.2,0.2-0.3L14.9,0.3c0.1-0.1,0.2-0.1,0.3-0.2C15.3,0,15.4,0,15.5,0c0,0,0,0,0,0c0,0,0,0,0,0c0,0,0,0,0,0c0,0,0,0,0,0 c0,0,0,0,0,0h34c0.5,0,0.9,0.4,0.9,0.9v31.9c6.1,1.7,10.5,7.2,10.5,13.8c0,2.9-0.9,5.6-2.3,7.8L74.7,70c0.2,0.2,0.3,0.4,0.3,0.6 s-0.1,0.5-0.3,0.6l-3.5,3.5C71.1,74.9,70.8,75,70.6,75z M61.2,63.8l9.4,9.1l2.3-2.3l-9.2-8.9L61.2,63.8z M1.8,68h46.9v-7.2 c-0.7,0.1-1.4,0.1-2.1,0.1c-5.7,0-10.7-3.4-13-8.2H7.9c-0.5,0-0.9-0.4-0.9-0.9C7,51.4,7.4,51,7.9,51h25c-0.4-1.4-0.7-2.9-0.7-4.4 c0-0.9,0.1-1.8,0.2-2.6H7.9c-0.5,0-0.9-0.4-0.9-0.9s0.4-0.9,0.9-0.9h25c0.9-2.8,2.7-5.3,5-7h-30c-0.5,0-0.9-0.4-0.9-0.9 c0-0.5,0.4-0.9,0.9-0.9h32.2c0.2,0,0.3,0,0.5,0.1c1.8-0.8,3.8-1.3,6-1.3c0.7,0,1.4,0,2.1,0.1V1.8H16.4v13.8c0,0.5-0.4,0.9-0.9,0.9 H1.8V68z M55.2,58.1l4.7,4.5l2.5-2.1l-4.8-4.7C56.9,56.7,56.1,57.4,55.2,58.1z M36.8,54.5c2.3,2.9,5.8,4.7,9.8,4.7 c3,0,5.7-1,7.9-2.8V36.8C52.3,35,49.6,34,46.6,34c-3.4,0-6.5,1.3-8.7,3.5h10.5c0.5,0,0.9,0.4,0.9,0.9c0,0.5-0.4,0.9-0.9,0.9H36.6 c-0.1,0-0.2,0-0.3,0c-1.2,1.7-2,3.7-2.3,5.9h14.3c0.5,0,0.9,0.4,0.9,0.9c0,0.5-0.4,0.9-0.9,0.9H34c0,2.2,0.6,4.2,1.7,6 c0.1-0.1,0.3-0.1,0.4-0.1h12.3c0.5,0,0.9,0.4,0.9,0.9s-0.4,0.9-0.9,0.9H36.8z M56.2,38.5v16.1c1.8-2.2,2.9-5,2.9-8.1 S58.1,40.7,56.2,38.5z M3,14.6h11.6V3L3,14.6z M42.5,27H27.2c-0.5,0-0.9-0.4-0.9-0.9s0.4-0.9,0.9-0.9h15.2c0.5,0,0.9,0.4,0.9,0.9 S43,27,42.5,27z M23.1,27H7.9C7.4,27,7,26.6,7,26.1s0.4-0.9,0.9-0.9h15.2c0.5,0,0.9,0.4,0.9,0.9S23.6,27,23.1,27z"></path></svg>