<svg xmlns="http://www.w3.org/2000/svg" xmlns:xlink="http://www.w3.org/1999/xlink" id="Layer_1" x="0px" y="0px" viewBox="0 0 75 75" style="enable-background:new 0 0 75 75;" xml:space="preserve"><style type="text/css">	.st0{fill:url(#SVGID_1_);}	.st1{fill:url(#SVGID_00000111899161551703276850000003348061673539602054_);}	.st2{fill:url(#SVGID_00000024704694169018437820000003762177714026095256_);}</style><g>	<linearGradient id="SVGID_1_" gradientUnits="userSpaceOnUse" x1="0" y1="25.7838" x2="66.2109" y2="25.7838">		<stop offset="0" style="stop-color:#4D148C"></stop>		<stop offset="0.33" style="stop-color:#7D22C3"></stop>		<stop offset="1" style="stop-color:#FF6200"></stop>	</linearGradient>	<path class="st0" d="M1.8,37.5c0-19.7,16-35.7,35.7-35.7c9.2,0,18.1,3.6,24.7,9.9h-5.7c-0.5,0-0.9,0.4-0.9,0.9s0.4,0.9,0.9,0.9h8.8  c0.5,0,0.9-0.4,0.9-0.9V3.8c0-0.5-0.4-0.9-0.9-0.9s-0.9,0.4-0.9,0.9v7.6C57.4,4.2,47.6,0,37.5,0C16.8,0,0,16.8,0,37.5  c0,4.6,0.8,9.2,2.5,13.5c0.1,0.4,0.5,0.6,0.8,0.6c0.1,0,0.2,0,0.3-0.1c0.5-0.2,0.7-0.7,0.5-1.1C2.6,46.2,1.8,41.9,1.8,37.5z"></path>			<linearGradient id="SVGID_00000055702569641428605290000006514334089748868002_" gradientUnits="userSpaceOnUse" x1="8.7888" y1="49.2175" x2="75" y2="49.2175">		<stop offset="0" style="stop-color:#4D148C"></stop>		<stop offset="0.33" style="stop-color:#7D22C3"></stop>		<stop offset="1" style="stop-color:#FF6200"></stop>	</linearGradient>	<path style="fill:url(#SVGID_00000055702569641428605290000006514334089748868002_);" d="M72.5,24c-0.2-0.5-0.7-0.7-1.1-0.5  c-0.5,0.2-0.7,0.7-0.5,1.1c1.6,4.1,2.4,8.4,2.4,12.9c0,19.7-16,35.7-35.7,35.7c-9.2,0-18.1-3.6-24.7-9.9h5.7c0.5,0,0.9-0.4,0.9-0.9  c0-0.5-0.4-0.9-0.9-0.9H9.7c-0.5,0-0.9,0.4-0.9,0.9v8.8c0,0.5,0.4,0.9,0.9,0.9c0.5,0,0.9-0.4,0.9-0.9v-7.6  c7,7.3,16.8,11.4,26.9,11.4C58.2,75,75,58.2,75,37.5C75,32.9,74.2,28.3,72.5,24z"></path>			<linearGradient id="SVGID_00000147186812382323070100000000885195305073626241_" gradientUnits="userSpaceOnUse" x1="11.7162" y1="37.5" x2="63.2841" y2="37.5">		<stop offset="0" style="stop-color:#4D148C"></stop>		<stop offset="0.33" style="stop-color:#7D22C3"></stop>		<stop offset="1" style="stop-color:#FF6200"></stop>	</linearGradient>	<path style="fill:url(#SVGID_00000147186812382323070100000000885195305073626241_);" d="M57,20.7c-0.2-0.2-0.4-0.4-0.6-0.7  c-0.1-0.1-0.1-0.1-0.2-0.2c-3.3-3.5-7.7-6.1-12.5-7.3c0,0-0.1,0-0.1,0c-2-0.5-4-0.7-6.1-0.7c-3.8,0-7.4,0.8-10.6,2.3  c-0.1,0-0.1,0.1-0.2,0.1c-5.9,2.8-10.6,7.7-13.1,13.7c0,0,0,0.1,0,0.1c-1.2,3-1.8,6.2-1.8,9.5C11.7,48,18,57,27,61.1  c0.1,0,0.2,0.1,0.2,0.1c1.7,0.8,3.6,1.3,5.5,1.7c0,0,0,0,0,0c0,0,0,0,0,0c1.5,0.3,3.1,0.4,4.8,0.4c8.4,0,15.9-4,20.6-10.3  c0.1-0.1,0.1-0.1,0.2-0.2c3.2-4.3,5-9.6,5-15.3c0-6.3-2.3-12.2-6.1-16.6C57.1,20.8,57.1,20.7,57,20.7z M44.2,18.9  c0.1-0.1,0.1-0.2,0.1-0.4l0.1-4c3.3,1,6.4,2.7,9,4.9L48.9,19c-0.3,0-0.5,0.1-0.7,0.3L44.8,23L43,21.2L44.2,18.9z M27.2,15.8  l1.6,0.4l-1,1.9c-0.2,0.3-0.1,0.8,0.2,1l3.5,3.5L26.9,25c-0.2,0.1-0.3,0.2-0.4,0.4l-2.9,5.9c-0.1,0.1-0.1,0.3-0.1,0.4v2.3L22,32.5  c-0.2-0.2-0.4-0.3-0.6-0.3h-1.5c-0.3,0-0.6,0.2-0.8,0.5l-1.8,3.7l-2-8.1C17.6,22.8,21.9,18.3,27.2,15.8z M13.5,37.5  c0-2.1,0.3-4.1,0.8-6.1l1.9,7.7c0,0,0,0,0,0c0,0.1,0.1,0.2,0.1,0.3c0,0,0,0,0,0c0.1,0.1,0.1,0.1,0.2,0.2c0,0,0,0,0,0l4,2.7v6.8  c0,0.2,0.1,0.4,0.2,0.5l5.7,7.7l0.1,1.4C18.8,54.8,13.5,46.8,13.5,37.5z M32.1,60.3L32,60.9c-1.3-0.3-2.5-0.7-3.7-1.2L28.1,57  c0-0.2-0.1-0.3-0.2-0.4l-5.6-7.7v-6.1h7.6l5.3,4v6.7l-3,6.6C32.1,60.1,32.1,60.2,32.1,60.3z M37.5,61.5c-1.3,0-2.5-0.1-3.7-0.3  l0.1-0.6l3-6.6c0.1-0.1,0.1-0.2,0.1-0.4v-7.3c0-0.3-0.1-0.5-0.4-0.7l-5.9-4.4c-0.2-0.1-0.3-0.2-0.5-0.2h-8.5l-3.5-2.3l2.3-4.7H21  l2.7,2.7c0.3,0.3,0.6,0.3,1,0.2c0.3-0.1,0.5-0.5,0.5-0.8v-4.2l2.7-5.4l5.6-2.8c0.3-0.1,0.4-0.4,0.5-0.7c0-0.3,0-0.6-0.2-0.8  l-3.9-3.9l1.2-2.4c0.1-0.2,0.1-0.5,0-0.8c-0.1-0.2-0.3-0.4-0.6-0.5l-0.2,0c2.3-0.7,4.8-1.1,7.3-1.1c1.7,0,3.4,0.2,5.1,0.5l-0.1,4.2  L41.1,21c-0.2,0.3-0.1,0.8,0.2,1l2.9,2.9c0.2,0.2,0.4,0.3,0.6,0.3c0,0,0,0,0,0c0.2,0,0.5-0.1,0.6-0.3l3.7-4.1l6.1,0.5  c0.1,0.1,0.1,0.1,0.2,0.2l-1.1,4.8h-6.6c-0.3,0-0.5,0.1-0.7,0.3L41.2,34c-0.2,0.2-0.2,0.6-0.1,0.9l2.9,7.3c0.1,0.2,0.3,0.4,0.5,0.5  l8.4,2.8l3.4,6.7C52,57.9,45.2,61.5,37.5,61.5z M57.6,50.6l-3.2-6.2c-0.1-0.2-0.3-0.4-0.5-0.4l-8.4-2.8l-2.6-6.5l5.3-6.6h6.9  c0.4,0,0.8-0.3,0.9-0.7l0.9-4.1c2.9,4,4.6,8.9,4.6,14.2C61.5,42.3,60.1,46.9,57.6,50.6z"></path></g></svg>